<?xml version="1.0" encoding="utf-8"?>
<!-- Generator: Adobe Illustrator 24.0.1, SVG Export Plug-In . SVG Version: 6.00 Build 0)  -->
<svg version="1.1" id="Ebene_1" xmlns="http://www.w3.org/2000/svg" xmlns:xlink="http://www.w3.org/1999/xlink" x="0px" y="0px"
	 viewBox="0 0 50 50" style="enable-background:new 0 0 50 50;" xml:space="preserve">
<style type="text/css">
	.st0{fill:#FFFFFF;}
	.st1{fill:none;stroke:#FFFFFF;stroke-width:2;stroke-miterlimit:10;}
</style>
<g>
	<circle class="st0" cx="24.22" cy="19.48" r="4.71"/>
	<path class="st0" d="M32.26,32.4v-3.97c0-1.78-1.94-3.22-4.33-3.22h-7.42c-2.39,0-4.33,1.44-4.33,3.22v3.97H32.26z"/>
</g>
<g>
	<circle class="st1" cx="24.22" cy="24.29" r="20.93"/>
</g>
<circle class="st0" cx="6.38" cy="13.31" r="2.75"/>
<path class="st0" d="M41.6,17.51h3.94c0.43,0,0.77-0.35,0.77-0.77V12.8c0-0.43-0.35-0.77-0.77-0.77H41.6
	c-0.43,0-0.77,0.35-0.77,0.77v3.94C40.82,17.16,41.17,17.51,41.6,17.51z"/>
<circle class="st0" cx="22.95" cy="45.22" r="2.75"/>
<circle class="st1" cx="24.22" cy="24.29" r="15.87"/>
<path class="st0" d="M6.98,31.68h3.94c0.43,0,0.77-0.35,0.77-0.77v-3.94c0-0.43-0.35-0.77-0.77-0.77H6.98
	c-0.43,0-0.77,0.35-0.77,0.77v3.94C6.21,31.33,6.55,31.68,6.98,31.68z"/>
<circle class="st0" cx="27.36" cy="8.75" r="2.75"/>
<path class="st0" d="M36.78,33.37h3.94c0.43,0,0.77-0.35,0.77-0.77v-3.94c0-0.43-0.35-0.77-0.77-0.77h-3.94
	c-0.43,0-0.77,0.35-0.77,0.77v3.94C36.01,33.03,36.36,33.37,36.78,33.37z"/>
</svg>
