<?xml version="1.0" encoding="utf-8"?>
<!-- Generator: Adobe Illustrator 24.0.1, SVG Export Plug-In . SVG Version: 6.00 Build 0)  -->
<svg version="1.1" xmlns="http://www.w3.org/2000/svg" xmlns:xlink="http://www.w3.org/1999/xlink" x="0px" y="0px"
	 viewBox="0 0 99.69 29.72" style="enable-background:new 0 0 99.69 29.72;" xml:space="preserve">
<style type="text/css">
	.st0{stroke:#909091;stroke-width:2;stroke-miterlimit:10;}
	.st1{fill:#909091;}
	.st2{fill:#CDCCCC;}
	.st3{fill:#CCCCCC;}
	.st4{enable-background:new    ;}
	.st5{fill:#010202;}
	.st6{fill:#919191;}
	.st7{display:none;}
	.st8{display:inline;}
	.st9{display:inline;fill:none;}
</style>
<g id="Ebene_1">
	<g>
		<polyline class="st0" points="77.04,22.43 48.29,51.19 19.53,22.43 		"/>
		<polyline class="st0" points="19.53,-90.62 48.29,-119.37 77.04,-90.62 		"/>
	</g>
	<g>
		<ellipse cx="48.29" cy="-34.1" rx="68.97" ry="68.97"/>
		<path class="st1" d="M48.29-102.06c37.54,0,67.97,30.43,67.97,67.97S85.83,33.88,48.29,33.88S-19.68,3.45-19.68-34.09
			S10.75-102.06,48.29-102.06 M48.29-104.06c-38.58,0-69.97,31.39-69.97,69.97S9.71,35.88,48.29,35.88s69.97-31.39,69.97-69.97
			S86.87-104.06,48.29-104.06L48.29-104.06z"/>
	</g>
	<g>
		<circle class="st2" cx="48.29" cy="-34.09" r="48.91"/>
		<path class="st1" d="M48.29-82C74.71-82,96.2-60.51,96.2-34.09S74.71,13.82,48.29,13.82S0.38-7.67,0.38-34.09S21.87-82,48.29-82
			 M48.29-84C20.73-84-1.62-61.65-1.62-34.09s22.35,49.91,49.91,49.91S98.2-6.53,98.2-34.09S75.85-84,48.29-84L48.29-84z"/>
	</g>
	<g>
		<ellipse cx="48.29" cy="-34.1" rx="38.35" ry="38.35"/>
		<path class="st1" d="M48.29-71.44c20.63,0,37.35,16.72,37.35,37.35S68.92,3.26,48.29,3.26S10.94-13.46,10.94-34.09
			S27.66-71.44,48.29-71.44 M48.29-73.44c-21.7,0-39.35,17.65-39.35,39.35S26.59,5.26,48.29,5.26s39.35-17.65,39.35-39.35
			S69.99-73.44,48.29-73.44L48.29-73.44z"/>
	</g>
	<g>
		<path class="st3" d="M-33.54-18.33c-8.26,0-14.99-6.72-14.99-14.99v-1.54c0-8.27,6.72-14.99,14.99-14.99h163.65
			c8.26,0,14.99,6.72,14.99,14.99v1.54c0,8.26-6.72,14.99-14.99,14.99H-33.54z"/>
		<path d="M130.11-48.85c7.73,0,13.99,6.26,13.99,13.99v1.54c0,7.73-6.26,13.99-13.99,13.99H-33.54c-7.73,0-13.99-6.26-13.99-13.99
			v-1.54c0-7.73,6.26-13.99,13.99-13.99H130.11 M130.11-50.85H-33.54c-8.82,0-15.99,7.17-15.99,15.99v1.54
			c0,8.82,7.17,15.99,15.99,15.99h163.65c8.82,0,15.99-7.17,15.99-15.99v-1.54C146.1-43.68,138.93-50.85,130.11-50.85L130.11-50.85z
			"/>
	</g>
	<g class="st4">
		<path class="st5" d="M-22.62-24.69c0-0.34-0.1-0.54-0.3-0.58s-0.45-0.07-0.76-0.07h-14.84v-0.62c0.62,0,0.94-0.21,0.94-0.62
			v-15.57c0-0.41-0.31-0.62-0.94-0.62v-0.62h5.36v0.62c-0.58,0-0.87,0.21-0.87,0.62v13.65h10.35c0.31,0,0.57-0.08,0.76-0.24
			c0.2-0.16,0.3-0.38,0.3-0.65h0.56v4.7H-22.62z"/>
		<path class="st5" d="M-21-25.96c0.25-0.05,0.45-0.18,0.61-0.39c0.16-0.22,0.27-0.42,0.36-0.6l4.65-11.14
			c0.12-0.32,0.22-0.58,0.3-0.77c0.07-0.19,0.11-0.38,0.11-0.57c0-0.14-0.03-0.22-0.08-0.26c-0.05-0.03-0.11-0.07-0.17-0.12v-0.62
			h4.71v0.62c-0.06,0.05-0.13,0.08-0.2,0.1c-0.07,0.02-0.11,0.11-0.11,0.27c0,0.14,0.05,0.3,0.14,0.5c0.09,0.19,0.19,0.42,0.3,0.67
			l5.05,11.66c0.1,0.21,0.22,0.35,0.34,0.45c0.12,0.09,0.26,0.16,0.41,0.21v0.62h-4.43v-0.51c0.1,0,0.21-0.03,0.33-0.1
			c0.11-0.07,0.17-0.19,0.17-0.38c0-0.14-0.02-0.26-0.06-0.38c-0.04-0.11-0.09-0.26-0.16-0.45l-0.84-1.95h-6.67l-0.87,1.85
			c-0.08,0.18-0.15,0.35-0.2,0.5c-0.05,0.15-0.08,0.28-0.08,0.39c0,0.18,0.05,0.3,0.16,0.34c0.1,0.05,0.25,0.07,0.44,0.07v0.62H-21
			V-25.96z M-10.58-31.65l-2.53-5.76l-2.21,5.76H-10.58z"/>
		<path class="st5" d="M6.91-40.43c1.85,0,3.29,0.34,4.33,1.01c1.04,0.67,1.56,1.82,1.56,3.45c0,0.62-0.1,1.17-0.31,1.65
			c-0.21,0.48-0.48,0.9-0.83,1.25c-0.34,0.35-0.72,0.64-1.14,0.86c-0.42,0.22-0.84,0.38-1.28,0.5l3.06,4.9
			c0.17,0.25,0.35,0.44,0.55,0.57c0.2,0.13,0.41,0.22,0.64,0.29v0.62H8.72v-0.62c0.27,0,0.41-0.1,0.41-0.31
			c0-0.23-0.16-0.58-0.47-1.06l-2.46-4.05H1.86v4.9c0,0.18,0.07,0.31,0.2,0.39c0.14,0.08,0.26,0.12,0.39,0.12v0.62H-1.7v-0.62
			c0.37,0,0.56-0.17,0.56-0.51V-39.3c0-0.34-0.19-0.51-0.56-0.51v-0.62H6.91z M6.85-33.92c2.04,0,3.06-0.71,3.06-2.13
			c0-0.57-0.24-1.02-0.73-1.36c-0.49-0.33-1.26-0.5-2.32-0.5H1.92v3.98H6.85z"/>
		<path class="st5" d="M18.38-30.59c0,0.09-0.01,0.19-0.02,0.29c-0.01,0.1-0.02,0.21-0.02,0.32c0,0.34,0.2,0.66,0.59,0.94
			c0.39,0.29,0.87,0.53,1.42,0.72c0.55,0.19,1.1,0.35,1.65,0.46c0.55,0.12,0.98,0.17,1.29,0.17c0.29,0,0.65-0.02,1.08-0.07
			c0.43-0.05,0.85-0.14,1.26-0.29c0.42-0.15,0.77-0.35,1.06-0.62c0.29-0.26,0.44-0.61,0.44-1.05c0-0.5-0.25-0.87-0.76-1.1
			c-0.51-0.23-1.15-0.4-1.92-0.53c-0.77-0.13-1.6-0.25-2.49-0.38c-0.89-0.12-1.73-0.33-2.49-0.62c-0.77-0.29-1.41-0.7-1.92-1.23
			c-0.51-0.54-0.76-1.3-0.76-2.28c0-1.46,0.55-2.63,1.65-3.5c1.1-0.87,2.65-1.3,4.65-1.3c0.98,0,1.81,0.09,2.51,0.26
			c0.7,0.17,1.28,0.36,1.76,0.57c0.48,0.21,0.87,0.39,1.17,0.57c0.3,0.17,0.52,0.26,0.67,0.26c0.17,0,0.29-0.03,0.37-0.09
			c0.08-0.06,0.19-0.12,0.31-0.19l0.34,0.38l-1.56,3.22l-0.56-0.21c-0.02-0.14-0.04-0.27-0.06-0.41c-0.02-0.14-0.11-0.27-0.28-0.41
			c-0.42-0.39-1.06-0.72-1.93-0.99c-0.87-0.27-1.85-0.41-2.93-0.41c-0.42,0-0.81,0.03-1.18,0.09c-0.37,0.06-0.71,0.15-1,0.29
			c-0.29,0.14-0.52,0.31-0.69,0.53c-0.17,0.22-0.25,0.49-0.25,0.81c0,0.5,0.25,0.86,0.76,1.08c0.51,0.22,1.15,0.39,1.92,0.51
			c0.77,0.13,1.6,0.25,2.49,0.38c0.89,0.13,1.73,0.34,2.49,0.63c0.77,0.3,1.41,0.73,1.92,1.3c0.51,0.57,0.76,1.36,0.76,2.37
			s-0.22,1.83-0.67,2.47c-0.45,0.64-1,1.14-1.67,1.51c-0.67,0.37-1.4,0.61-2.2,0.72c-0.8,0.11-1.55,0.17-2.26,0.17
			c-0.71,0-1.41-0.07-2.11-0.22c-0.7-0.15-1.33-0.32-1.9-0.51c-0.57-0.19-1.06-0.38-1.45-0.55c-0.4-0.17-0.63-0.26-0.72-0.26
			c-0.15,0-0.27,0.07-0.37,0.21l-0.44-0.34l1.43-3.84L18.38-30.59z"/>
		<path class="st5" d="M48.94-42.76c-0.46,0-0.69,0.21-0.69,0.62v10.29c0,1.44,0.42,2.43,1.26,2.97c0.84,0.54,2.07,0.81,3.69,0.81
			c1.62,0,2.85-0.27,3.69-0.81c0.84-0.54,1.26-1.53,1.26-2.97v-10.29c0-0.41-0.31-0.62-0.94-0.62v-0.62h4.99v0.62
			c-0.5,0-0.75,0.21-0.75,0.62v10.12c0,1.35-0.18,2.46-0.53,3.34c-0.35,0.88-0.88,1.58-1.59,2.11c-0.71,0.53-1.59,0.88-2.64,1.06
			c-1.05,0.18-2.26,0.27-3.63,0.27s-2.58-0.09-3.63-0.27c-1.05-0.18-1.93-0.54-2.63-1.06c-0.71-0.53-1.24-1.23-1.59-2.11
			c-0.35-0.88-0.53-1.99-0.53-3.34v-10.12c0-0.41-0.29-0.62-0.87-0.62v-0.62h5.11V-42.76z"/>
		<path class="st5" d="M75.31-40.43c1.85,0,3.29,0.34,4.33,1.01c1.04,0.67,1.56,1.82,1.56,3.45c0,0.62-0.1,1.17-0.31,1.65
			c-0.21,0.48-0.48,0.9-0.83,1.25c-0.34,0.35-0.72,0.64-1.14,0.86c-0.42,0.22-0.84,0.38-1.28,0.5l3.06,4.9
			c0.17,0.25,0.35,0.44,0.55,0.57c0.2,0.13,0.41,0.22,0.64,0.29v0.62h-4.77v-0.62c0.27,0,0.41-0.1,0.41-0.31
			c0-0.23-0.16-0.58-0.47-1.06l-2.46-4.05h-4.33v4.9c0,0.18,0.07,0.31,0.2,0.39c0.14,0.08,0.27,0.12,0.39,0.12v0.62h-4.15v-0.62
			c0.37,0,0.56-0.17,0.56-0.51V-39.3c0-0.34-0.19-0.51-0.56-0.51v-0.62H75.31z M75.25-33.92c2.04,0,3.06-0.71,3.06-2.13
			c0-0.57-0.25-1.02-0.73-1.36c-0.49-0.33-1.26-0.5-2.32-0.5h-4.93v3.98H75.25z"/>
		<path class="st5" d="M86.23-39.3c0-0.18-0.08-0.31-0.23-0.39c-0.16-0.08-0.32-0.12-0.48-0.12v-0.62h9.7c0.79,0,1.47,0.1,2.04,0.31
			c0.57,0.21,1.05,0.49,1.43,0.84c0.38,0.35,0.67,0.76,0.86,1.22c0.19,0.46,0.28,0.94,0.28,1.44c0,0.41-0.06,0.8-0.19,1.15
			c-0.12,0.35-0.29,0.67-0.48,0.96c-0.2,0.29-0.42,0.54-0.65,0.77c-0.24,0.23-0.48,0.41-0.73,0.55v0.03
			c0.29,0.14,0.58,0.32,0.87,0.55c0.29,0.23,0.55,0.5,0.78,0.82s0.42,0.69,0.56,1.1c0.15,0.41,0.22,0.86,0.22,1.34
			c0,0.55-0.09,1.06-0.28,1.54c-0.19,0.48-0.48,0.9-0.89,1.27c-0.41,0.37-0.94,0.66-1.59,0.87c-0.65,0.22-1.44,0.33-2.35,0.33h-9.57
			v-0.62c0.17,0,0.33-0.04,0.48-0.12c0.16-0.08,0.23-0.21,0.23-0.39V-39.3z M94.77-34.46c0.5,0,0.97-0.11,1.4-0.34
			c0.44-0.23,0.65-0.7,0.65-1.41c0-0.37-0.06-0.66-0.19-0.87c-0.12-0.22-0.28-0.39-0.47-0.51c-0.19-0.13-0.4-0.21-0.65-0.24
			c-0.25-0.03-0.5-0.05-0.75-0.05h-5.55v3.43H94.77z M94.71-27.88c0.96,0,1.61-0.17,1.96-0.51c0.35-0.34,0.53-0.82,0.53-1.44
			c0-0.71-0.23-1.23-0.69-1.58c-0.46-0.34-1.23-0.51-2.31-0.51h-4.99v4.05H94.71z"/>
		<path class="st5" d="M102.85-25.96c0.25-0.05,0.45-0.18,0.61-0.39c0.16-0.22,0.27-0.42,0.36-0.6l4.65-11.14
			c0.12-0.32,0.22-0.58,0.3-0.77s0.11-0.38,0.11-0.57c0-0.14-0.03-0.22-0.08-0.26s-0.11-0.07-0.17-0.12v-0.62h4.71v0.62
			c-0.06,0.05-0.13,0.08-0.2,0.1c-0.07,0.02-0.11,0.11-0.11,0.27c0,0.14,0.05,0.3,0.14,0.5c0.09,0.19,0.19,0.42,0.3,0.67l5.05,11.66
			c0.1,0.21,0.22,0.35,0.34,0.45c0.12,0.09,0.26,0.16,0.41,0.21v0.62h-4.43v-0.51c0.1,0,0.21-0.03,0.33-0.1
			c0.11-0.07,0.17-0.19,0.17-0.38c0-0.14-0.02-0.26-0.06-0.38c-0.04-0.11-0.09-0.26-0.16-0.45l-0.84-1.95h-6.67l-0.87,1.85
			c-0.08,0.18-0.15,0.35-0.2,0.5c-0.05,0.15-0.08,0.28-0.08,0.39c0,0.18,0.05,0.3,0.16,0.34c0.1,0.05,0.25,0.07,0.44,0.07v0.62
			h-4.18V-25.96z M113.26-31.65l-2.53-5.76l-2.21,5.76H113.26z"/>
		<path class="st5" d="M122.24-25.96c0.37,0,0.56-0.17,0.56-0.51V-39.3c0-0.34-0.19-0.51-0.56-0.51v-0.62h4.58v0.62
			c-0.15,0.02-0.22,0.08-0.22,0.17c0,0.11,0.23,0.42,0.69,0.93l7.48,8.71v-9.29c0-0.34-0.21-0.51-0.62-0.51v-0.62h3.8v0.62
			c-0.37,0-0.56,0.17-0.56,0.51v12.82c0,0.34,0.19,0.51,0.56,0.51v0.62h-4.05v-0.62c0.15,0,0.22-0.06,0.22-0.17
			c0-0.09-0.1-0.25-0.3-0.48c-0.2-0.23-0.42-0.49-0.67-0.79l-7.73-9.05v9.98c0,0.34,0.22,0.51,0.65,0.51v0.62h-3.84V-25.96z"/>
	</g>
	<g>
		<path class="st6" d="M10.88-77.08c-0.1-0.1-0.19-0.14-0.28-0.12c-0.12,0.02-0.25,0.09-0.39,0.22l-2.13,2.08l1.99,2.04
			c0.07,0.07,0.15,0.12,0.22,0.13c0.08,0.01,0.16-0.03,0.26-0.12l0.12,0.12l-1.32,1.29l-0.12-0.12c0.09-0.09,0.14-0.17,0.13-0.25
			c-0.01-0.08-0.05-0.15-0.12-0.22l-4.44-4.55c-0.07-0.07-0.15-0.12-0.22-0.13c-0.07-0.01-0.16,0.03-0.25,0.12L4.2-76.7l4.31-4.2
			c0.17-0.17,0.27-0.29,0.29-0.37c0.02-0.07-0.01-0.15-0.08-0.22l0.12-0.12l1.11,1.14l-0.12,0.12c-0.08-0.09-0.18-0.13-0.28-0.13
			c-0.1,0-0.23,0.08-0.38,0.23l-3.24,3.16l1.51,1.54l2.12-2.07c0.17-0.17,0.27-0.29,0.29-0.37c0.02-0.08-0.01-0.15-0.08-0.22
			l0.12-0.12L11-77.19L10.88-77.08z"/>
		<path class="st6" d="M18.55-80.03c0.05,0.09,0.12,0.14,0.19,0.17c0.07,0.03,0.16,0,0.27-0.07l0.09,0.14l-1.56,0.99l-0.09-0.14
			c0.11-0.07,0.17-0.14,0.18-0.22c0.01-0.08-0.02-0.16-0.07-0.24l-3.41-5.36c-0.06-0.09-0.12-0.14-0.19-0.17
			c-0.07-0.03-0.16,0-0.27,0.07l-0.09-0.14l3.96-2.52c0.78-0.5,1.43-0.7,1.96-0.62s0.97,0.4,1.32,0.96c0.32,0.5,0.44,0.97,0.36,1.43
			s-0.38,0.91-0.92,1.37l2.95,1.36c0.17,0.07,0.29,0.11,0.36,0.12c0.08,0.01,0.17-0.03,0.29-0.1l0.09,0.14l-1.7,1.08l-0.09-0.14
			c0.1-0.06,0.16-0.11,0.18-0.15c0.02-0.03,0.01-0.07-0.01-0.11c-0.03-0.05-0.08-0.08-0.14-0.09l-2.93-1.39l-2.17,1.38L18.55-80.03z
			 M19.19-84.75c0.48-0.3,0.76-0.61,0.84-0.92c0.08-0.31,0.02-0.62-0.18-0.93c-0.1-0.16-0.21-0.28-0.31-0.36
			c-0.11-0.08-0.24-0.13-0.39-0.14c-0.15-0.01-0.32,0.02-0.52,0.1c-0.2,0.08-0.44,0.2-0.71,0.38l-2.53,1.61l1.22,1.91L19.19-84.75z"
			/>
		<path class="st6" d="M29.24-93.18c0.57-0.2,1.13-0.31,1.67-0.33c0.54-0.02,1.04,0.06,1.5,0.24c0.46,0.18,0.87,0.45,1.23,0.82
			c0.35,0.37,0.63,0.84,0.83,1.41c0.2,0.57,0.28,1.11,0.24,1.62c-0.04,0.51-0.19,0.98-0.44,1.4s-0.59,0.8-1.03,1.11
			c-0.43,0.32-0.93,0.58-1.51,0.78c-0.57,0.2-1.13,0.32-1.66,0.34c-0.54,0.03-1.03-0.05-1.5-0.22c-0.46-0.17-0.87-0.44-1.22-0.81
			c-0.35-0.37-0.63-0.84-0.83-1.41c-0.2-0.57-0.28-1.11-0.24-1.62c0.04-0.51,0.19-0.98,0.44-1.41s0.59-0.81,1.02-1.13
			C28.17-92.71,28.67-92.98,29.24-93.18z M29.56-92.28c-0.9,0.32-1.51,0.8-1.83,1.44c-0.32,0.64-0.34,1.38-0.04,2.2
			c0.29,0.83,0.77,1.39,1.42,1.68c0.65,0.3,1.43,0.28,2.33-0.03c0.9-0.32,1.51-0.8,1.83-1.44s0.34-1.38,0.04-2.2
			c-0.29-0.83-0.77-1.39-1.42-1.68S30.46-92.6,29.56-92.28z"/>
		<path class="st6" d="M46.59-91.09l-0.52-4.98c-0.01-0.1-0.04-0.18-0.1-0.24c-0.05-0.06-0.14-0.08-0.27-0.06l-0.02-0.17l1.67-0.18
			l0.02,0.17c-0.13,0.01-0.21,0.05-0.25,0.12c-0.04,0.06-0.05,0.15-0.04,0.25l0.67,6.32c0.01,0.1,0.04,0.18,0.09,0.24
			c0.05,0.06,0.14,0.08,0.27,0.06l0.02,0.17l-1.78,0.19l-0.02-0.17c0.19-0.02,0.28-0.07,0.27-0.14c-0.01-0.06-0.03-0.12-0.07-0.15
			c-0.04-0.04-0.07-0.07-0.09-0.1l-5.55-5.12l0.6,5.68c0.01,0.1,0.04,0.18,0.09,0.24c0.05,0.06,0.14,0.08,0.27,0.06l0.02,0.17
			l-1.67,0.18l-0.02-0.17c0.13-0.01,0.21-0.05,0.26-0.12c0.04-0.06,0.05-0.15,0.04-0.25l-0.66-6.32c-0.01-0.1-0.04-0.18-0.1-0.24
			c-0.05-0.06-0.14-0.08-0.27-0.06l-0.02-0.17l2.35-0.25l0.02,0.17c-0.1,0.01-0.17,0.03-0.21,0.06c-0.03,0.03-0.05,0.07-0.04,0.12
			c0,0.03,0.02,0.06,0.04,0.09c0.03,0.03,0.06,0.06,0.09,0.08l4.9,4.52L46.59-91.09z"/>
		<path class="st6" d="M55.25-89.15c0.13,0.02,0.22,0,0.27-0.06c0.05-0.05,0.09-0.13,0.1-0.23l0.73-5.89l-2.33-0.29
			c-0.18-0.02-0.3-0.01-0.38,0.03c-0.08,0.04-0.13,0.13-0.15,0.27l-0.17-0.02l0.2-1.64l0.17,0.02c-0.03,0.24,0.12,0.38,0.44,0.42
			l5.83,0.73c0.32,0.04,0.5-0.06,0.53-0.3l0.17,0.02l-0.2,1.64l-0.17-0.02c0.02-0.14-0.01-0.24-0.08-0.3
			c-0.07-0.06-0.19-0.1-0.37-0.12l-2.33-0.29l-0.73,5.89c-0.01,0.1,0,0.19,0.04,0.25c0.04,0.07,0.12,0.11,0.25,0.12l-0.02,0.17
			l-1.83-0.23L55.25-89.15z"/>
		<path class="st6" d="M66.63-93.71c0.04-0.1,0.04-0.18,0.02-0.25c-0.02-0.07-0.1-0.13-0.22-0.18l0.06-0.16L72-92.31
			c0.23,0.08,0.38,0.11,0.46,0.1c0.08-0.02,0.13-0.07,0.17-0.17l0.16,0.06l-0.54,1.5l-0.16-0.06c0.04-0.11,0.04-0.22-0.01-0.31
			c-0.05-0.09-0.17-0.17-0.37-0.25l-4.11-1.48l-0.75,2.08l2.67,0.97c0.16,0.06,0.3,0.08,0.42,0.06c0.12-0.02,0.2-0.09,0.25-0.24
			l0.16,0.06l-0.57,1.59l-0.16-0.06c0.05-0.13,0.04-0.24-0.02-0.32c-0.06-0.08-0.18-0.16-0.37-0.22l-2.7-0.97l-0.81,2.24l4.4,1.59
			c0.18,0.07,0.33,0.08,0.44,0.05c0.11-0.03,0.2-0.13,0.26-0.3l0.16,0.06l-0.57,1.57l-0.16-0.06c0.06-0.17-0.06-0.31-0.37-0.42
			l-5.9-2.13l0.06-0.16c0.12,0.04,0.22,0.05,0.28,0c0.07-0.04,0.11-0.11,0.15-0.21L66.63-93.71z"/>
		<path class="st6" d="M81.3-80.72l2.81-4.15c0.06-0.08,0.08-0.17,0.08-0.24c0-0.08-0.06-0.15-0.17-0.22l0.09-0.14l1.39,0.94
			l-0.09,0.14c-0.11-0.07-0.2-0.1-0.27-0.07c-0.07,0.02-0.14,0.08-0.2,0.16l-3.57,5.26c-0.06,0.09-0.08,0.17-0.08,0.24
			c0.01,0.08,0.06,0.15,0.17,0.22l-0.09,0.14l-1.48-1.01l0.09-0.14c0.16,0.1,0.25,0.13,0.29,0.06c0.04-0.05,0.05-0.11,0.04-0.16
			c-0.01-0.06-0.01-0.1-0.01-0.13l-0.95-7.49l-3.2,4.73c-0.06,0.09-0.08,0.17-0.08,0.24c0,0.08,0.06,0.15,0.17,0.22l-0.09,0.14
			l-1.39-0.94l0.1-0.14c0.11,0.07,0.2,0.1,0.27,0.07c0.07-0.02,0.14-0.08,0.2-0.16l3.57-5.26c0.06-0.08,0.08-0.17,0.08-0.24
			c0-0.08-0.06-0.15-0.17-0.22L78.9-89l1.96,1.33l-0.09,0.14c-0.09-0.06-0.15-0.09-0.19-0.09c-0.04,0-0.08,0.02-0.11,0.07
			c-0.02,0.02-0.02,0.05-0.02,0.09c0,0.04,0,0.08,0.01,0.12l0.83,6.61L81.3-80.72z"/>
		<path class="st6" d="M90.41-79.45c0.08-0.07,0.12-0.14,0.14-0.21c0.02-0.08-0.02-0.16-0.11-0.26l0.12-0.11l2.86,3.26
			c0.38,0.43,0.66,0.89,0.82,1.35c0.17,0.47,0.24,0.93,0.2,1.39c-0.03,0.46-0.16,0.9-0.38,1.33c-0.22,0.43-0.53,0.82-0.93,1.17
			c-0.4,0.35-0.82,0.62-1.26,0.81c-0.44,0.19-0.88,0.28-1.32,0.27c-0.44-0.01-0.87-0.11-1.29-0.32c-0.42-0.21-0.82-0.52-1.2-0.95
			l-3.04-3.46l0.13-0.11c0.09,0.1,0.17,0.15,0.24,0.14c0.08,0,0.15-0.04,0.23-0.11L90.41-79.45z M88.69-72.42
			c0.54,0.62,1.12,0.93,1.74,0.93c0.62,0,1.27-0.3,1.95-0.89c0.68-0.6,1.04-1.23,1.08-1.89s-0.23-1.32-0.8-1.97l-1.79-2.04
			l-4.14,3.64L88.69-72.42z"/>
	</g>
	<text transform="matrix(1 0 0 1 -51.519 -129.3541)" style="font-family:'ArialMT'; font-size:12px;"> </text>
	<g>
		<path class="st6" d="M5.15,3.01c0.07-0.07,0.12-0.14,0.13-0.22c0.01-0.08-0.03-0.16-0.12-0.25l0.12-0.12l3.03,3.11
			c0.4,0.41,0.7,0.85,0.89,1.31C9.39,7.3,9.48,7.76,9.47,8.21C9.46,8.67,9.35,9.12,9.15,9.57c-0.2,0.44-0.49,0.85-0.87,1.22
			c-0.38,0.37-0.79,0.66-1.22,0.87c-0.43,0.21-0.86,0.32-1.3,0.34c-0.44,0.02-0.87-0.07-1.31-0.25c-0.43-0.18-0.85-0.48-1.25-0.89
			L0,7.55l0.12-0.12c0.09,0.09,0.17,0.14,0.25,0.13S0.52,7.51,0.6,7.44L5.15,3.01z M3.78,10.12c0.57,0.59,1.17,0.87,1.79,0.84
			c0.62-0.03,1.25-0.36,1.9-0.99c0.65-0.63,0.98-1.28,0.98-1.94c0.01-0.66-0.29-1.3-0.9-1.93L5.67,4.15L1.72,7.99L3.78,10.12z"/>
		<path class="st6" d="M14.58,11.72c0.06-0.09,0.08-0.17,0.08-0.24c-0.01-0.08-0.06-0.15-0.17-0.22l0.09-0.14l4.9,3.23
			c0.2,0.13,0.34,0.2,0.42,0.2c0.08,0,0.15-0.04,0.2-0.13l0.14,0.09l-0.88,1.33l-0.14-0.09c0.07-0.1,0.09-0.2,0.06-0.3
			s-0.12-0.21-0.3-0.33l-3.65-2.4l-1.22,1.85l2.37,1.56c0.14,0.09,0.27,0.14,0.39,0.16c0.12,0.01,0.22-0.04,0.3-0.17l0.14,0.09
			l-0.93,1.41l-0.14-0.09c0.08-0.12,0.1-0.22,0.06-0.31c-0.04-0.09-0.14-0.19-0.3-0.3l-2.4-1.58l-1.31,1.99l3.9,2.57
			c0.16,0.11,0.3,0.16,0.42,0.15c0.12-0.01,0.22-0.08,0.32-0.23l0.14,0.09l-0.92,1.39l-0.14-0.09c0.1-0.15,0.01-0.31-0.26-0.49
			l-5.24-3.45l0.09-0.14c0.11,0.07,0.2,0.09,0.27,0.07c0.07-0.03,0.14-0.08,0.19-0.17L14.58,11.72z"/>
		<path class="st6" d="M23.78,24.49c0.12,0.05,0.21,0.07,0.27,0.05c0.05-0.01,0.09-0.04,0.11-0.09c0.02-0.06,0.04-0.11,0.04-0.14
			c0-0.03,0-0.09-0.01-0.17l-0.3-6.66c-0.01-0.22-0.04-0.38-0.09-0.46c-0.05-0.08-0.13-0.14-0.26-0.19l0.06-0.16l1.87,0.74
			l-0.06,0.16c-0.23-0.09-0.37-0.06-0.42,0.07c-0.01,0.03-0.02,0.08-0.01,0.12c0.01,0.05,0.01,0.1,0.01,0.15l0.26,5.89l4.12-4.14
			c0.03-0.04,0.07-0.07,0.1-0.1c0.03-0.03,0.05-0.06,0.07-0.09c0.03-0.07,0.03-0.13-0.01-0.19c-0.03-0.06-0.11-0.11-0.24-0.17
			l0.06-0.16l1.85,0.74l-0.06,0.16c-0.12-0.05-0.23-0.06-0.34-0.02c-0.1,0.03-0.22,0.12-0.36,0.26l-4.69,4.67
			c-0.02,0.01-0.05,0.05-0.11,0.1c-0.06,0.05-0.09,0.1-0.11,0.14c-0.02,0.04-0.02,0.09,0.01,0.13c0.02,0.04,0.1,0.09,0.23,0.14
			l-0.06,0.16l-1.99-0.79L23.78,24.49z"/>
		<path class="st6" d="M35.34,21.28c0.02-0.1,0.01-0.19-0.03-0.25c-0.04-0.07-0.12-0.11-0.25-0.13l0.03-0.17l5.77,1.03
			c0.24,0.04,0.39,0.05,0.47,0.02c0.07-0.03,0.12-0.09,0.13-0.2l0.17,0.03l-0.28,1.57l-0.17-0.03c0.02-0.12,0-0.22-0.06-0.3
			c-0.06-0.08-0.2-0.14-0.41-0.18l-4.3-0.77l-0.39,2.18l2.8,0.5c0.17,0.03,0.31,0.03,0.42-0.01c0.12-0.04,0.19-0.13,0.21-0.28
			l0.17,0.03l-0.3,1.67l-0.17-0.03c0.02-0.14,0-0.24-0.07-0.31c-0.07-0.07-0.21-0.12-0.4-0.16l-2.82-0.51l-0.42,2.34l4.6,0.82
			c0.19,0.03,0.34,0.03,0.45-0.03s0.17-0.17,0.2-0.34l0.17,0.03l-0.29,1.64l-0.17-0.03c0.03-0.18-0.11-0.29-0.44-0.35l-6.17-1.11
			l0.03-0.17c0.13,0.02,0.22,0.01,0.28-0.04c0.06-0.05,0.09-0.13,0.11-0.23L35.34,21.28z"/>
		<path class="st6" d="M48.55,22.37c-0.13,0-0.22,0.04-0.26,0.1c-0.05,0.07-0.07,0.17-0.06,0.3l0.14,5.88l4.7-0.11
			c0.33-0.01,0.49-0.15,0.48-0.43l0.17,0l0.04,1.61l-0.17,0c0-0.18-0.17-0.26-0.5-0.25l-6.21,0.15l0-0.17c0.13,0,0.22-0.04,0.26-0.1
			c0.05-0.06,0.07-0.14,0.06-0.25l-0.15-6.35c0-0.1-0.03-0.18-0.08-0.24s-0.14-0.09-0.27-0.08l0-0.17l1.85-0.04L48.55,22.37z"/>
		<path class="st6" d="M61.28,20.6c0.59-0.14,1.15-0.19,1.69-0.15c0.54,0.04,1.03,0.17,1.47,0.4c0.44,0.23,0.82,0.54,1.13,0.95
			c0.31,0.41,0.54,0.9,0.68,1.49c0.14,0.59,0.16,1.14,0.07,1.64c-0.1,0.5-0.29,0.95-0.59,1.35c-0.3,0.4-0.67,0.73-1.14,1
			c-0.46,0.27-0.99,0.47-1.58,0.61c-0.59,0.14-1.15,0.19-1.69,0.16c-0.54-0.03-1.02-0.16-1.46-0.38c-0.44-0.22-0.82-0.54-1.13-0.94
			c-0.31-0.41-0.54-0.9-0.68-1.49c-0.14-0.59-0.16-1.14-0.07-1.64c0.1-0.5,0.29-0.95,0.59-1.35c0.29-0.4,0.67-0.74,1.13-1.02
			C60.17,20.95,60.69,20.74,61.28,20.6z M61.5,21.53c-0.93,0.22-1.58,0.63-1.97,1.24c-0.39,0.6-0.48,1.33-0.28,2.18
			c0.2,0.85,0.61,1.46,1.23,1.83c0.62,0.37,1.39,0.44,2.32,0.22c0.93-0.22,1.58-0.63,1.97-1.23s0.48-1.33,0.28-2.18
			c-0.2-0.85-0.61-1.46-1.23-1.83C63.2,21.38,62.43,21.31,61.5,21.53z"/>
		<path class="st6" d="M70.22,18.39c-0.04-0.09-0.1-0.16-0.17-0.19c-0.07-0.04-0.16-0.02-0.28,0.03l-0.07-0.15l4.24-2.05
			c0.83-0.4,1.5-0.53,2.02-0.4c0.51,0.14,0.9,0.49,1.17,1.05c0.3,0.63,0.36,1.2,0.17,1.72c-0.19,0.52-0.69,0.97-1.51,1.37
			l-2.91,1.41l1.17,2.42c0.04,0.09,0.1,0.16,0.17,0.19c0.07,0.04,0.16,0.02,0.28-0.03l0.07,0.15l-1.66,0.8l-0.07-0.15
			c0.12-0.06,0.18-0.12,0.2-0.2c0.02-0.07,0-0.16-0.04-0.25L70.22,18.39z M75.31,18.95c0.51-0.25,0.83-0.52,0.94-0.81
			c0.12-0.3,0.09-0.61-0.07-0.95c-0.16-0.33-0.37-0.52-0.63-0.59c-0.27-0.06-0.67,0.04-1.23,0.31l-2.85,1.38l0.99,2.04L75.31,18.95z
			"/>
		<path class="st6" d="M80.7,12.62c-0.06-0.08-0.13-0.13-0.2-0.15c-0.07-0.02-0.16,0.01-0.27,0.09l-0.1-0.13l4.66-3.56
			c0.19-0.15,0.3-0.26,0.33-0.33c0.03-0.07,0.01-0.15-0.05-0.23l0.13-0.1l0.97,1.27l-0.13,0.1c-0.07-0.1-0.16-0.15-0.26-0.16
			s-0.24,0.05-0.41,0.18l-3.47,2.65l1.34,1.76l2.26-1.73c0.13-0.1,0.23-0.21,0.28-0.32c0.05-0.11,0.03-0.22-0.06-0.34l0.13-0.1
			l1.03,1.35l-0.13,0.1c-0.08-0.11-0.18-0.16-0.28-0.16c-0.1,0.01-0.23,0.07-0.38,0.19l-2.28,1.74l1.45,1.89l3.71-2.84
			c0.16-0.12,0.25-0.24,0.28-0.35c0.03-0.11-0.01-0.24-0.11-0.38l0.13-0.1l1.01,1.32l-0.13,0.1c-0.11-0.14-0.29-0.11-0.55,0.09
			l-4.98,3.81l-0.1-0.13c0.1-0.08,0.16-0.16,0.16-0.23c0-0.08-0.03-0.15-0.09-0.24L80.7,12.62z"/>
		<path class="st6" d="M95.38,8.05c0.08,0.07,0.16,0.1,0.23,0.1c0.08,0,0.16-0.05,0.24-0.15l0.13,0.11l-1.19,1.42l-0.13-0.11
			c0.08-0.1,0.12-0.19,0.1-0.26c-0.02-0.07-0.06-0.14-0.14-0.21l-4.87-4.08c-0.08-0.07-0.16-0.1-0.23-0.1
			c-0.08,0-0.16,0.05-0.24,0.15L89.15,4.8l3.01-3.59c0.59-0.71,1.15-1.1,1.68-1.19c0.53-0.08,1.04,0.09,1.55,0.52
			c0.45,0.38,0.71,0.79,0.78,1.25s-0.09,0.99-0.47,1.58l3.23,0.4c0.18,0.02,0.31,0.02,0.38,0s0.16-0.08,0.25-0.19l0.13,0.11
			l-1.3,1.54l-0.13-0.11c0.08-0.09,0.12-0.16,0.13-0.19c0.01-0.04-0.01-0.07-0.04-0.1c-0.04-0.04-0.1-0.05-0.16-0.05l-3.21-0.44
			l-1.66,1.97L95.38,8.05z M94.56,3.36c0.37-0.44,0.54-0.81,0.53-1.13c-0.02-0.32-0.17-0.59-0.45-0.83
			c-0.14-0.12-0.28-0.2-0.41-0.25c-0.13-0.05-0.27-0.05-0.41-0.02c-0.15,0.04-0.3,0.12-0.47,0.25c-0.17,0.13-0.36,0.33-0.57,0.58
			l-1.93,2.29l1.74,1.46L94.56,3.36z"/>
	</g>
	<text transform="matrix(1 0 0 1 -51.519 -129.3541)" style="font-family:'ArialMT'; font-size:12px;"> </text>
</g>
<g id="Ebene_2" class="st7">
	<g class="st8">
		<polyline class="st0" points="77.04,15.43 48.29,44.19 19.53,15.43 		"/>
		<polyline class="st0" points="19.53,-97.62 48.29,-126.37 77.04,-97.62 		"/>
	</g>
	<g class="st8">
		<ellipse cx="48.29" cy="-41.1" rx="68.97" ry="68.97"/>
		<path class="st1" d="M48.29-109.06c37.54,0,67.97,30.43,67.97,67.97S85.83,26.88,48.29,26.88S-19.68-3.55-19.68-41.09
			S10.75-109.06,48.29-109.06 M48.29-111.06c-38.58,0-69.97,31.39-69.97,69.97S9.71,28.88,48.29,28.88s69.97-31.39,69.97-69.97
			S86.87-111.06,48.29-111.06L48.29-111.06z"/>
	</g>
	<g class="st8">
		<circle class="st2" cx="48.29" cy="-41.09" r="48.91"/>
		<path class="st1" d="M48.29-89C74.71-89,96.2-67.51,96.2-41.09S74.71,6.82,48.29,6.82S0.38-14.67,0.38-41.09S21.87-89,48.29-89
			 M48.29-91C20.73-91-1.62-68.65-1.62-41.09S20.73,8.82,48.29,8.82S98.2-13.53,98.2-41.09S75.85-91,48.29-91L48.29-91z"/>
	</g>
	<g class="st8">
		<ellipse cx="48.29" cy="-41.1" rx="38.35" ry="38.35"/>
		<path class="st1" d="M48.29-78.44c20.63,0,37.35,16.72,37.35,37.35S68.92-3.74,48.29-3.74S10.94-20.46,10.94-41.09
			S27.66-78.44,48.29-78.44 M48.29-80.44c-21.7,0-39.35,17.65-39.35,39.35S26.59-1.74,48.29-1.74s39.35-17.65,39.35-39.35
			S69.99-80.44,48.29-80.44L48.29-80.44z"/>
	</g>
	<g class="st8">
		<path class="st3" d="M-33.54-25.33c-8.26,0-14.99-6.72-14.99-14.99v-1.54c0-8.27,6.72-14.99,14.99-14.99h163.65
			c8.26,0,14.99,6.72,14.99,14.99v1.54c0,8.26-6.72,14.99-14.99,14.99H-33.54z"/>
		<path d="M130.11-55.85c7.73,0,13.99,6.26,13.99,13.99v1.54c0,7.73-6.26,13.99-13.99,13.99H-33.54c-7.73,0-13.99-6.26-13.99-13.99
			v-1.54c0-7.73,6.26-13.99,13.99-13.99H130.11 M130.11-57.85H-33.54c-8.82,0-15.99,7.17-15.99,15.99v1.54
			c0,8.82,7.17,15.99,15.99,15.99h163.65c8.82,0,15.99-7.17,15.99-15.99v-1.54C146.1-50.68,138.93-57.85,130.11-57.85L130.11-57.85z
			"/>
	</g>
	
		<text transform="matrix(0.9093 0 0 1 -40.3274 -32.3544)" style="display:inline;fill:#010202; font-family:'Copperplate'; font-size:34.8296px;">Lars Urban</text>
	<path id="SVGID_x5F_1_x5F__1_" class="st9" d="M8.59-77.48c19.82-22.38,53.21-25.16,74.58-6.23s22.64,52.42,2.83,74.79
		S32.79,16.23,11.41-2.7S-11.23-55.11,8.59-77.48z"/>
	<text class="st8">	<textPath  xlink:href="#SVGID_x5F_1_x5F__1_" startOffset="0%">
<tspan  class="st6" style="font-family:'Copperplate-Light'; font-size:14px; letter-spacing:200;">FRONTEND</tspan>	</textPath>
</text>
	<text transform="matrix(1 0 0 1 -51.5203 -136.3544)" class="st8" style="font-family:'ArialMT'; font-size:12px;"> </text>
	<path id="SVGID_x5F_2_x5F__1_" class="st9" d="M-1.63-1.6C-23.44-29.17-18.77-69.2,8.8-91.01s67.6-17.14,89.41,10.43
		s17.14,67.6-10.43,89.41S20.18,25.96-1.63-1.6z"/>
	<text class="st8">	<textPath  xlink:href="#SVGID_x5F_2_x5F__1_" startOffset="0%">
<tspan  class="st6" style="font-family:'Copperplate-Light'; font-size:14px; letter-spacing:200;">DEVELOPER</tspan>	</textPath>
</text>
	<text transform="matrix(1 0 0 1 -51.5203 -136.3544)" class="st8" style="font-family:'ArialMT'; font-size:12px;"> </text>
</g>
</svg>
